# xmcd
#
# Track frame offsets: 
#        150
#        17585
#        33734
#        46535
#        61753
#        78367
#        100270
#        121435
#        154226
#        168627
#        192675
#        212716
#        226815
#        244060
#        266339
#        275545
#
# Disc length: 3910 seconds
#
# Revision: 0
# Processed by: cddbd v1.5.1PL2 Copyright (c) Steve Scherf et al.
# Submitted via: ExactAudioCopy v0.95a5
#
DISCID=d60f4410
DTITLE=Various Artist - A Further History of Progrssive Blues [CD1)
DYEAR=2005
DGENRE=Blues
TTITLE0=John Lee Hooker - Rock These Blues Away
TTITLE1=Frankie Miller - Play Something Sweet (Brickyard Blues)
TTITLE2=George Thorogood and The Destroyers - Don't Let The Boss Man Get
TTITLE2=You Down
TTITLE3=Peter Green - Albatross (acoustic version)
TTITLE4=Jack Casady - Paradise
TTITLE5=Snowy White Blues Agency - I Want Your Love
TTITLE6=John Mayall and The Bluesbreakers - Southside Story
TTITLE7=Scott Hold - Blind Willy McTell
TTITLE8=Dennie Laine - Say You Don't Mind
TTITLE9=Nazareth - Vigilante Man
TTITLE10=Michael Messer - Crow Blues
TTITLE11=Ian Gillian and Roger Glover - Lonely Avenue
TTITLE12=Peter Green Splinter Band - Legal Fees Blues
TTITLE13=Big Town Playboys (Feat. Andy Fairwaether-Low) - Companion Bl
TTITLE13=ues
TTITLE14=Spooky Tooth - Sunshine Help Me
TTITLE15=The Doobie Brothers - Can't Stand To Loose
EXTD=
EXTT0=
EXTT1=
EXTT2=
EXTT3=
EXTT4=
EXTT5=
EXTT6=
EXTT7=
EXTT8=
EXTT9=
EXTT10=
EXTT11=
EXTT12=
EXTT13=
EXTT14=
EXTT15=
PLAYORDER=
